<svg width="209" height="204" viewBox="0 0 209 204" fill="none" xmlns="http://www.w3.org/2000/svg">
<g filter="url(#filter0_d_988_261)">
<path d="M168.583 90.154C169.059 93.459 169.3 96.732 169.3 99.891C169.3 138.769 137.117 170.402 97.563 170.402C58.0094 170.402 25.8264 138.769 25.8264 99.891C25.8264 69.6228 45.3811 42.9119 74.577 33.1828C75.848 33.9878 77.291 34.4094 78.789 34.4094C83.149 34.4094 86.698 30.9211 86.698 26.6354C86.698 22.3497 83.149 18.8613 78.789 18.8613C74.748 18.8613 71.402 21.8513 70.934 25.7077C38.8915 36.8398 17.4336 66.5255 17.4336 99.907C17.4336 143.331 53.3762 178.667 97.563 178.667C141.743 178.667 177.693 143.339 177.693 99.907C177.693 96.395 177.428 92.753 176.898 89.066C178.699 87.594 179.745 85.432 179.745 83.109C179.745 78.823 176.196 75.335 171.835 75.335C167.475 75.335 163.926 78.823 163.926 83.109C163.918 86.191 165.751 88.912 168.583 90.154Z" fill="#01134D"/>
<path d="M190.594 87.585C186.14 87.585 182.521 91.142 182.521 95.52C182.521 98.334 184.026 100.902 186.437 102.32C185.142 149.325 145.455 187.406 97.508 187.406C48.4383 187.406 8.5254 148.168 8.5254 99.944C8.5254 54.6179 44.3198 16.5218 90.176 12.8188C91.705 14.7431 94.006 15.8701 96.51 15.8701C100.964 15.8701 104.583 12.3128 104.583 7.9351C104.583 3.5574 100.964 0 96.51 0C93.398 0 90.605 1.7633 89.271 4.485C65.1849 6.4784 42.83 17.1659 26.2237 34.6384C9.3132 52.4406 0 75.64 0 99.944C0 152.791 43.7426 195.794 97.516 195.794C123.28 195.794 147.592 185.965 165.969 168.124C184.112 150.514 194.393 127.115 194.97 102.167C197.271 100.71 198.667 98.242 198.667 95.528C198.667 91.142 195.04 87.585 190.594 87.585Z" fill="#01134D"/>
<path d="M97.896 36.7233C62.7024 36.7233 34.0684 64.8679 34.0684 99.46C34.0684 134.053 62.7024 162.197 97.896 162.197C133.09 162.197 161.724 134.053 161.724 99.46C161.724 64.8679 133.09 36.7233 97.896 36.7233ZM97.896 148.382C70.4556 148.382 48.124 126.44 48.124 99.46C48.124 72.489 70.4556 50.5388 97.896 50.5388C125.337 50.5388 147.668 72.489 147.668 99.46C147.668 126.44 125.337 148.382 97.896 148.382Z" fill="#01134D"/>
<path d="M130.694 99.927C130.694 82.516 116.335 68.4017 98.621 68.4017C80.907 68.4017 66.5469 82.516 66.5469 99.927C66.5469 117.339 80.907 131.453 98.621 131.453C116.335 131.453 130.694 117.339 130.694 99.927Z" fill="#FF693B"/>
</g>
<defs>
<filter id="filter0_d_988_261" x="0" y="0" width="208.667" height="203.794" filterUnits="userSpaceOnUse" color-interpolation-filters="sRGB">
<feFlood flood-opacity="0" result="BackgroundImageFix"/>
<feColorMatrix in="SourceAlpha" type="matrix" values="0 0 0 0 0 0 0 0 0 0 0 0 0 0 0 0 0 0 127 0" result="hardAlpha"/>
<feOffset dx="6" dy="4"/>
<feGaussianBlur stdDeviation="2"/>
<feComposite in2="hardAlpha" operator="out"/>
<feColorMatrix type="matrix" values="0 0 0 0 0 0 0 0 0 0 0 0 0 0 0 0 0 0 0.19 0"/>
<feBlend mode="normal" in2="BackgroundImageFix" result="effect1_dropShadow_988_261"/>
<feBlend mode="normal" in="SourceGraphic" in2="effect1_dropShadow_988_261" result="shape"/>
</filter>
</defs>
</svg>
