<svg width="31" height="30" viewBox="0 0 31 30" fill="none" xmlns="http://www.w3.org/2000/svg">
<g clip-path="url(#clip0_942_1882)">
<g clip-path="url(#clip1_942_1882)">
<g clip-path="url(#clip2_942_1882)">
<mask id="mask0_942_1882" style="mask-type:luminance" maskUnits="userSpaceOnUse" x="0" y="0" width="31" height="30">
<path d="M30.5303 0H0.530273V30H30.5303V0Z" fill="white"/>
</mask>
<g mask="url(#mask0_942_1882)">
<path d="M23.4991 0H7.56152C3.67827 0 0.530273 3.148 0.530273 7.03125V22.9688C0.530273 26.852 3.67827 30 7.56152 30H23.4991C27.3823 30 30.5303 26.852 30.5303 22.9688V7.03125C30.5303 3.148 27.3823 0 23.4991 0Z" fill="url(#paint0_radial_942_1882)"/>
<path d="M23.4991 0H7.56152C3.67827 0 0.530273 3.148 0.530273 7.03125V22.9688C0.530273 26.852 3.67827 30 7.56152 30H23.4991C27.3823 30 30.5303 26.852 30.5303 22.9688V7.03125C30.5303 3.148 27.3823 0 23.4991 0Z" fill="url(#paint1_radial_942_1882)"/>
<path d="M15.5314 3.28125C12.3488 3.28125 11.9493 3.2952 10.6994 3.35203C9.45175 3.40922 8.60015 3.60668 7.85507 3.89648C7.08422 4.19578 6.43043 4.59621 5.7791 5.24777C5.12718 5.89922 4.72675 6.55301 4.42652 7.32352C4.1359 8.06883 3.9382 8.92078 3.88207 10.1678C3.82617 11.4178 3.81152 11.8174 3.81152 15.0001C3.81152 18.1828 3.82558 18.581 3.8823 19.8309C3.93972 21.0785 4.13718 21.9301 4.42675 22.6752C4.72629 23.4461 5.12672 24.0998 5.77828 24.7512C6.42949 25.4031 7.08328 25.8045 7.85355 26.1038C8.59922 26.3936 9.45093 26.591 10.6983 26.6482C11.9483 26.705 12.3475 26.719 15.5299 26.719C18.7129 26.719 19.1111 26.705 20.361 26.6482C21.6086 26.591 22.4611 26.3936 23.2068 26.1038C23.9773 25.8045 24.6301 25.4031 25.2812 24.7512C25.9332 24.0998 26.3335 23.4461 26.6338 22.6755C26.9219 21.9301 27.1197 21.0783 27.1783 19.8312C27.2344 18.5812 27.2491 18.1828 27.2491 15.0001C27.2491 11.8174 27.2344 11.418 27.1783 10.168C27.1197 8.92043 26.9219 8.06895 26.6338 7.32387C26.3335 6.55301 25.9332 5.89922 25.2812 5.24777C24.6294 4.59598 23.9775 4.19555 23.2061 3.8966C22.459 3.60668 21.6069 3.4091 20.3594 3.35203C19.1093 3.2952 18.7114 3.28125 15.5277 3.28125H15.5314ZM14.4801 5.39309C14.7921 5.39262 15.1403 5.39309 15.5314 5.39309C18.6604 5.39309 19.0312 5.40434 20.2668 5.46047C21.4094 5.51273 22.0295 5.70363 22.4426 5.86406C22.9895 6.07641 23.3794 6.33035 23.7893 6.74063C24.1995 7.15078 24.4533 7.54137 24.6662 8.08828C24.8267 8.50078 25.0178 9.12094 25.0698 10.2635C25.126 11.4989 25.1382 11.8699 25.1382 14.9974C25.1382 18.1249 25.126 18.4961 25.0698 19.7313C25.0176 20.8739 24.8267 21.4941 24.6662 21.9067C24.4539 22.4536 24.1995 22.843 23.7893 23.2529C23.3792 23.6631 22.9898 23.9169 22.4426 24.1294C22.03 24.2905 21.4094 24.4809 20.2668 24.5332C19.0314 24.5893 18.6604 24.6015 15.5314 24.6015C12.4022 24.6015 12.0313 24.5893 10.796 24.5332C9.65343 24.4805 9.03328 24.2896 8.61984 24.1291C8.07304 23.9167 7.68234 23.6629 7.27218 23.2527C6.86203 22.8425 6.6082 22.4529 6.39527 21.9057C6.23484 21.4931 6.04371 20.873 5.99168 19.7304C5.93554 18.495 5.92429 18.124 5.92429 14.9945C5.92429 11.8651 5.93554 11.496 5.99168 10.2606C6.04394 9.11801 6.23484 8.49785 6.39527 8.08477C6.60773 7.53785 6.86203 7.14727 7.2723 6.73711C7.68246 6.32695 8.07304 6.07301 8.61996 5.8602C9.03304 5.69906 9.65343 5.50863 10.796 5.45613C11.8771 5.40727 12.296 5.39262 14.4801 5.39016V5.39309ZM21.7868 7.33887C21.0105 7.33887 20.3806 7.96816 20.3806 8.74465C20.3806 9.52102 21.0105 10.1509 21.7868 10.1509C22.5632 10.1509 23.1931 9.52102 23.1931 8.74465C23.1931 7.96828 22.5632 7.33887 21.7868 7.33887ZM15.5314 8.98195C12.2079 8.98195 9.51328 11.6766 9.51328 15.0001C9.51328 18.3237 12.2079 21.017 15.5314 21.017C18.8549 21.017 21.5486 18.3237 21.5486 15.0001C21.5486 11.6767 18.855 8.98195 15.5314 8.98195ZM15.5314 11.0938C17.6887 11.0938 19.4377 12.8426 19.4377 15.0001C19.4377 17.1574 17.6887 18.9064 15.5314 18.9064C13.3739 18.9064 11.6251 17.1574 11.6251 15.0001C11.6251 12.8426 13.3739 11.0938 15.5314 11.0938Z" fill="white"/>
</g>
</g>
</g>
</g>
<defs>
<radialGradient id="paint0_radial_942_1882" cx="0" cy="0" r="1" gradientUnits="userSpaceOnUse" gradientTransform="translate(8.49902 32.3106) rotate(-90) scale(29.7322 27.6533)">
<stop stop-color="#FFDD55"/>
<stop offset="0.1" stop-color="#FFDD55"/>
<stop offset="0.5" stop-color="#FF543E"/>
<stop offset="1" stop-color="#C837AB"/>
</radialGradient>
<radialGradient id="paint1_radial_942_1882" cx="0" cy="0" r="1" gradientUnits="userSpaceOnUse" gradientTransform="translate(-4.49485 2.16105) rotate(78.681) scale(13.2905 54.7837)">
<stop stop-color="#3771C8"/>
<stop offset="0.128" stop-color="#3771C8"/>
<stop offset="1" stop-color="#6600FF" stop-opacity="0"/>
</radialGradient>
<clipPath id="clip0_942_1882">
<rect width="30" height="30" fill="white" transform="translate(0.530273)"/>
</clipPath>
<clipPath id="clip1_942_1882">
<rect width="30" height="30" fill="white" transform="translate(0.530273)"/>
</clipPath>
<clipPath id="clip2_942_1882">
<rect width="30" height="30" fill="white" transform="translate(0.530273)"/>
</clipPath>
</defs>
</svg>
