<svg width="31" height="30" viewBox="0 0 31 30" fill="none" xmlns="http://www.w3.org/2000/svg">
<g clip-path="url(#clip0_942_1873)">
<g clip-path="url(#clip1_942_1873)">
<g clip-path="url(#clip2_942_1873)">
<mask id="mask0_942_1873" style="mask-type:luminance" maskUnits="userSpaceOnUse" x="0" y="0" width="31" height="30">
<path d="M30.5303 0H0.530273V30H30.5303V0Z" fill="white"/>
</mask>
<g mask="url(#mask0_942_1873)">
<path d="M27.7178 0.703233H3.34277C2.78972 0.697605 2.25702 0.911603 1.86156 1.29827C1.46611 1.68494 1.2402 2.21269 1.2334 2.76573V27.2392C1.24143 27.7914 1.46788 28.3179 1.8632 28.7036C2.25852 29.0893 2.79052 29.3026 3.34277 29.297H27.7178C28.2709 29.3014 28.8032 29.0866 29.1985 28.6997C29.5937 28.3128 29.8198 27.7852 29.8272 27.2321V2.7587C29.8173 2.20728 29.5902 1.68205 29.1952 1.29715C28.8002 0.91226 28.2693 0.698822 27.7178 0.703233Z" fill="#0076B2"/>
<path d="M5.46641 11.4213H9.71094V25.0784H5.46641V11.4213ZM7.58985 4.62451C8.07668 4.62451 8.55257 4.7689 8.95732 5.03941C9.36207 5.30993 9.67749 5.69441 9.86368 6.14423C10.0499 6.59404 10.0985 7.08897 10.0033 7.56641C9.90818 8.04385 9.67357 8.48234 9.32917 8.82642C8.98476 9.17049 8.54605 9.40469 8.06852 9.49938C7.59099 9.59407 7.0961 9.545 6.64647 9.35838C6.19683 9.17176 5.81265 8.85597 5.54252 8.45096C5.27239 8.04596 5.12845 7.56993 5.12891 7.0831C5.12954 6.43083 5.38909 5.80548 5.85053 5.34447C6.31198 4.88346 6.93758 4.62451 7.58985 4.62451ZM12.3735 11.4213H16.4422V13.2963H16.4985C17.0657 12.2229 18.4485 11.0909 20.5133 11.0909C24.8117 11.0815 25.6086 13.9104 25.6086 17.5784V25.0784H21.3641V18.4338C21.3641 16.8518 21.336 14.8151 19.1586 14.8151C16.9813 14.8151 16.611 16.5401 16.611 18.3307V25.0784H12.3735V11.4213Z" fill="white"/>
</g>
</g>
</g>
</g>
<defs>
<clipPath id="clip0_942_1873">
<rect width="30" height="30" fill="white" transform="translate(0.530273)"/>
</clipPath>
<clipPath id="clip1_942_1873">
<rect width="30" height="30" fill="white" transform="translate(0.530273)"/>
</clipPath>
<clipPath id="clip2_942_1873">
<rect width="30" height="30" fill="white" transform="translate(0.530273)"/>
</clipPath>
</defs>
</svg>
