<svg width="25" height="24" viewBox="0 0 25 24" fill="none" xmlns="http://www.w3.org/2000/svg">
<path d="M18.198 7.77C18.128 7.76 18.058 7.76 17.988 7.77C16.438 7.72 15.208 6.45 15.208 4.89C15.208 3.3 16.498 2 18.098 2C19.688 2 20.988 3.29 20.988 4.89C20.978 6.45 19.748 7.72 18.198 7.77Z" fill="white"/>
<path d="M21.4576 14.7C20.3376 15.45 18.7676 15.73 17.3176 15.54C17.6976 14.72 17.8976 13.81 17.9076 12.85C17.9076 11.85 17.6876 10.9 17.2676 10.07C18.7476 9.87004 20.3176 10.15 21.4476 10.9C23.0276 11.94 23.0276 13.65 21.4576 14.7Z" fill="white"/>
<path d="M7.10836 7.77C7.17836 7.76 7.24836 7.76 7.31836 7.77C8.86836 7.72 10.0984 6.45 10.0984 4.89C10.0984 3.3 8.80836 2 7.20836 2C5.61836 2 4.31836 3.29 4.31836 4.89C4.32836 6.45 5.55836 7.72 7.10836 7.77Z" fill="white"/>
<path d="M7.21808 12.85C7.21808 13.82 7.42808 14.74 7.80808 15.57C6.39809 15.72 4.92809 15.42 3.84809 14.71C2.26809 13.66 2.26809 11.95 3.84809 10.9C4.91809 10.18 6.42809 9.88998 7.84809 10.05C7.43809 10.89 7.21808 11.84 7.21808 12.85Z" fill="white"/>
<path d="M12.7878 15.87C12.7078 15.86 12.6178 15.86 12.5278 15.87C10.6878 15.81 9.21777 14.3 9.21777 12.44C9.21777 10.54 10.7478 9 12.6578 9C14.5578 9 16.0978 10.54 16.0978 12.44C16.0978 14.3 14.6378 15.81 12.7878 15.87Z" fill="white"/>
<path d="M9.53777 17.94C8.02777 18.95 8.02777 20.61 9.53777 21.61C11.2578 22.76 14.0778 22.76 15.7978 21.61C17.3078 20.6 17.3078 18.94 15.7978 17.94C14.0878 16.79 11.2678 16.79 9.53777 17.94Z" fill="white"/>
</svg>
