<svg width="31" height="30" viewBox="0 0 31 30" fill="none" xmlns="http://www.w3.org/2000/svg">
<g clip-path="url(#clip0_942_1892)">
<g clip-path="url(#clip1_942_1892)">
<g clip-path="url(#clip2_942_1892)">
<mask id="mask0_942_1892" style="mask-type:luminance" maskUnits="userSpaceOnUse" x="0" y="0" width="31" height="30">
<path d="M30.5303 0H0.530273V30H30.5303V0Z" fill="white"/>
</mask>
<g mask="url(#mask0_942_1892)">
<path fill-rule="evenodd" clip-rule="evenodd" d="M30.5303 5.45956C29.428 5.96154 28.2412 6.30101 26.9962 6.45269C28.2676 5.67263 29.2431 4.43572 29.7027 2.96226C28.5123 3.68455 27.197 4.21 25.7918 4.49169C24.6719 3.26562 23.0712 2.5 21.2998 2.5C17.9031 2.5 15.1473 5.32593 15.1473 8.81094C15.1473 9.3057 15.2001 9.78603 15.3058 10.2483C10.1904 9.98466 5.65617 7.47472 2.61866 3.65204C2.08864 4.58739 1.78576 5.67263 1.78576 6.82828C1.78576 9.01679 2.87223 10.9489 4.52393 12.0811C3.51671 12.0504 2.56584 11.7633 1.7347 11.2938V11.3714C1.7347 14.4303 3.85656 16.9818 6.67395 17.5596C6.15802 17.7077 5.61391 17.7817 5.05219 17.7817C4.656 17.7817 4.2686 17.7438 3.89354 17.6697C4.67712 20.1761 6.94864 22.0016 9.64278 22.0504C7.53678 23.7441 4.88138 24.7535 1.99883 24.7535C1.50227 24.7535 1.01099 24.7246 0.530273 24.6668C3.25434 26.4545 6.49082 27.5 9.96503 27.5C21.2875 27.5 27.4769 17.8846 27.4769 9.54406C27.4769 9.26959 27.4717 8.99512 27.4611 8.72607C28.6638 7.83586 29.708 6.72536 30.5303 5.45956Z" fill="#00AAEC"/>
</g>
</g>
</g>
</g>
<defs>
<clipPath id="clip0_942_1892">
<rect width="30" height="30" fill="white" transform="translate(0.530273)"/>
</clipPath>
<clipPath id="clip1_942_1892">
<rect width="30" height="30" fill="white" transform="translate(0.530273)"/>
</clipPath>
<clipPath id="clip2_942_1892">
<rect width="30" height="30" fill="white" transform="translate(0.530273)"/>
</clipPath>
</defs>
</svg>
