<svg width="25" height="24" viewBox="0 0 25 24" fill="none" xmlns="http://www.w3.org/2000/svg">
<g clip-path="url(#clip0_942_1863)">
<g clip-path="url(#clip1_942_1863)">
<path d="M19.58 4.91006C18.6632 3.98399 17.5712 3.24973 16.3677 2.75011C15.1641 2.25049 13.8732 1.99553 12.5701 2.00006C7.11008 2.00006 2.66008 6.45006 2.66008 11.9101C2.66008 13.6601 3.12008 15.3601 3.98008 16.8601L2.58008 22.0001L7.83008 20.6201C9.28011 21.41 10.9101 21.83 12.5701 21.83C18.0301 21.83 22.4801 17.3801 22.4801 11.9201C22.4801 9.27007 21.4501 6.78006 19.58 4.91006ZM12.5701 20.15C11.0901 20.15 9.64011 19.7501 8.37008 19.0001L8.07008 18.8201L4.95008 19.64L5.78008 16.6001L5.58008 16.2901C4.75783 14.977 4.32122 13.4593 4.32008 11.9101C4.32008 7.37006 8.02008 3.67006 12.5601 3.67006C14.7601 3.67006 16.8301 4.53006 18.38 6.09006C19.1475 6.85403 19.7558 7.76273 20.1695 8.7635C20.5832 9.76421 20.7941 10.8372 20.7901 11.9201C20.8101 16.46 17.1101 20.15 12.5701 20.15ZM17.0901 13.9901C16.8401 13.8701 15.6201 13.2701 15.4001 13.1801C15.1701 13.1 15.0101 13.0601 14.8401 13.3001C14.6701 13.55 14.2001 14.1101 14.0601 14.27C13.9201 14.4401 13.7701 14.4601 13.5201 14.33C13.2701 14.21 12.47 13.94 11.5301 13.1C10.79 12.44 10.3001 11.63 10.1501 11.3801C10.01 11.1301 10.13 11 10.2601 10.8701C10.37 10.76 10.5101 10.58 10.6301 10.4401C10.7501 10.3001 10.8001 10.19 10.88 10.0301C10.9601 9.86004 10.9201 9.72007 10.8601 9.60007C10.8001 9.48007 10.3001 8.26006 10.1 7.76006C9.90008 7.28006 9.69008 7.34006 9.54008 7.33006H9.06008C8.89008 7.33006 8.63008 7.39006 8.40008 7.64006C8.18008 7.89006 7.54008 8.49006 7.54008 9.71004C7.54008 10.9301 8.43008 12.11 8.55008 12.2701C8.67008 12.44 10.3001 14.9401 12.7801 16.01C13.3701 16.2701 13.8301 16.4201 14.1901 16.5301C14.78 16.7201 15.32 16.6901 15.7501 16.6301C16.2301 16.5601 17.2201 16.0301 17.4201 15.4501C17.6301 14.87 17.63 14.3801 17.5601 14.27C17.4901 14.1601 17.3401 14.1101 17.0901 13.9901Z" fill="#FF7636"/>
</g>
</g>
<defs>
<clipPath id="clip0_942_1863">
<rect width="24" height="24" fill="white" transform="translate(0.530273)"/>
</clipPath>
<clipPath id="clip1_942_1863">
<rect width="24" height="24" fill="white" transform="translate(0.530273)"/>
</clipPath>
</defs>
</svg>
